<svg xmlns="http://www.w3.org/2000/svg" fill="none" viewBox="0 0 1002 285">
  <g clip-path="url(#a)">
    <path fill="#FDE68A" d="M132.693 132.957V65.953h67.003l-67.003 67.004Z"/>
    <path fill="#FDE68A" d="M67.003 132.957V65.953h67.004l-67.004 67.004Z"/>
    <path fill="#F59E0B" d="M162.91 131.643H67.003v48.61h95.907v-48.61Z"/>
    <path fill="#FDE68A" d="M67.004 131.643H0v48.61h67.004v-48.61Z"/>
    <path fill="#FACC15" d="M134.007 65.953v67.004H67.003l67.004-67.004Z"/>
    <path fill="#FACC15" d="M67.004 65.953v67.004H0l67.004-67.004Zm132.692-1.313v67.004h-67.003l67.003-67.003Z"/>
    <path fill="#FDE68A" d="M251.535 52c-28.298 0-51.238 22.94-51.238 51.239 0 28.298 22.94 51.238 51.238 51.238s51.238-22.94 51.238-51.238-22.94-51.238-51.238-51.238Z"/>
    <path fill="#FACC15" d="M251.535 82.216c-11.609 0-21.021 9.412-21.021 21.021 0 11.61 9.412 21.021 21.021 21.021s21.021-9.411 21.021-21.021c0-11.61-9.412-21.02-21.021-21.02Zm47.296 72.26V87.473h67.003l-67.003 67.003Z"/>
    <path fill="#FDE68A" d="M999.983 42.52c-13.301 0-26.057 5.34-35.462 14.848-9.405 9.507-14.688 22.401-14.688 35.847 0 13.445 5.283 26.339 14.688 35.847 9.405 9.507 22.161 14.848 35.462 14.848v-23.535a26.726 26.726 0 0 1-18.999-7.955c-5.039-5.094-7.87-12.002-7.87-19.205 0-7.204 2.831-14.112 7.87-19.206a26.724 26.724 0 0 1 18.999-7.955V42.52Z"/>
    <path fill="#FACC15" d="M999.982 0c-24.577 0-48.147 9.82-65.526 27.302-17.379 17.48-27.142 41.19-27.142 65.912 0 24.721 9.763 48.431 27.142 65.912 17.379 17.48 40.949 27.301 65.526 27.301v-43.274a49.5 49.5 0 0 1-35.106-14.627c-9.31-9.365-14.541-22.068-14.541-35.312 0-13.245 5.231-25.948 14.541-35.313a49.502 49.502 0 0 1 35.106-14.627V0Z"/>
    <path stroke="#F59E0B" stroke-width="3.271" d="M939.475 162.988c-33.116 0-59.962 26.846-59.962 59.962s26.846 59.962 59.962 59.962 59.962-26.846 59.962-59.962-26.846-59.962-59.962-59.962Z"/>
    <path stroke="#F59E0B" stroke-width="3.271" d="M939.476 173.89c-27.095 0-49.06 21.965-49.06 49.06 0 27.095 21.965 49.06 49.06 49.06 27.095 0 49.06-21.965 49.06-49.06 0-27.095-21.965-49.06-49.06-49.06Z"/>
    <path stroke="#F59E0B" stroke-width="3.271" d="M939.475 183.702c-21.676 0-39.248 17.572-39.248 39.247 0 21.676 17.572 39.248 39.248 39.248s39.248-17.572 39.248-39.248c0-21.675-17.572-39.247-39.248-39.247Z"/>
    <path stroke="#F59E0B" stroke-width="3.271" d="M939.476 194.604c-15.655 0-28.346 12.69-28.346 28.345s12.691 28.346 28.346 28.346 28.346-12.691 28.346-28.346-12.691-28.345-28.346-28.345Z"/>
    <path stroke="#F59E0B" stroke-width="3.271" d="M939.475 205.506c-9.634 0-17.444 7.809-17.444 17.443s7.81 17.444 17.444 17.444 17.443-7.81 17.443-17.444-7.809-17.443-17.443-17.443Z"/>
    <path stroke="#FDE68A" stroke-width="3.271" d="M939.476 215.317a7.632 7.632 0 1 0 0 15.264 7.632 7.632 0 0 0 0-15.264Z"/>
    <path fill="#F59E0B" d="M862.615 180.977h55.601v-40.338h-55.601v40.338Z"/>
    <path fill="#FACC15" d="M862.615 235.488v-55.601h55.601l-55.601 55.601Z"/>
    <path stroke="#FACC15" stroke-width="2.18" d="m778.311 199.75 55.165-89.232 55.166 89.232H778.311Z"/>
    <path fill="#FACC15" d="m790.958 91 57.122 91.578H733.837L790.958 91Z"/>
  </g>
  <defs>
    <clipPath id="a">
      <path fill="#fff" d="M0 0h1002v285H0z"/>
    </clipPath>
  </defs>
</svg>
