<svg viewBox="0 0 275 104" width="275" height="104" fill="none" style="height: 1.5rem; margin-bottom: 0.2rem;" xmlns="http://www.w3.org/2000/svg">
<path d="M69.312 69.616C69.312 79.1733 65.984 87.28 59.328 93.936C52.7573 100.592 44.6933 103.92 35.136 103.92C25.4933 103.92 17.344 100.635 10.688 94.064C4.11733 87.408 0.832001 79.2587 0.832001 69.616C0.832001 60.0587 4.16 51.9947 10.816 45.424C17.472 38.768 25.5787 35.44 35.136 35.44C41.1947 35.44 46.8267 36.9333 52.032 39.92V0.623993H69.312V69.616ZM52.032 69.616C52.032 65.008 50.368 61.04 47.04 57.712C43.712 54.384 39.744 52.72 35.136 52.72C30.4427 52.72 26.432 54.384 23.104 57.712C19.776 60.9547 18.112 64.9227 18.112 69.616C18.112 74.3093 19.776 78.32 23.104 81.648C26.432 84.976 30.4427 86.64 35.136 86.64C39.8293 86.64 43.7973 84.976 47.04 81.648C50.368 78.32 52.032 74.3093 52.032 69.616ZM146.562 69.616C146.562 79.1733 143.234 87.28 136.578 93.936C130.007 100.592 121.943 103.92 112.386 103.92C102.743 103.92 94.594 100.635 87.938 94.064C81.3673 87.408 78.082 79.2587 78.082 69.616C78.082 60.0587 81.41 51.9947 88.066 45.424C94.722 38.768 102.829 35.44 112.386 35.44C121.943 35.44 130.007 38.768 136.578 45.424C143.234 51.9947 146.562 60.0587 146.562 69.616ZM129.282 69.616C129.282 65.008 127.618 61.04 124.29 57.712C120.962 54.384 116.994 52.72 112.386 52.72C107.693 52.72 103.682 54.384 100.354 57.712C97.026 60.9547 95.362 64.9227 95.362 69.616C95.362 74.3093 97.026 78.32 100.354 81.648C103.682 84.976 107.693 86.64 112.386 86.64C117.079 86.64 121.047 84.976 124.29 81.648C127.618 78.32 129.282 74.3093 129.282 69.616ZM213.566 94.32C206.91 100.72 199.017 103.92 189.886 103.92C180.243 103.92 172.094 100.635 165.438 94.064C158.867 87.408 155.582 79.2587 155.582 69.616C155.582 60.0587 158.91 51.9947 165.566 45.424C172.222 38.768 180.329 35.44 189.886 35.44C198.59 35.44 206.185 38.384 212.67 44.272L202.302 58.224C198.974 54.5547 194.835 52.72 189.886 52.72C185.193 52.72 181.182 54.384 177.854 57.712C174.526 60.9547 172.862 64.9227 172.862 69.616C172.862 74.3093 174.526 78.32 177.854 81.648C181.182 84.976 185.193 86.64 189.886 86.64C195.006 86.64 199.23 84.6773 202.558 80.752L213.566 94.32ZM274.05 82.416C274.05 86.512 272.685 90.224 269.954 93.552C264.493 100.208 256.727 103.408 246.658 103.152C242.647 103.067 238.253 102.171 233.474 100.464C228.781 98.7573 224.941 96.624 221.954 94.064L231.554 81.648C236.162 86 241.069 88.176 246.274 88.176H246.658C248.791 88.176 250.711 87.792 252.418 87.024C254.637 86 255.746 84.5493 255.746 82.672V82.16C255.49 80.1973 254.167 78.7893 251.778 77.936C250.839 77.7653 248.834 77.3813 245.762 76.784C241.922 76.016 238.679 75.0773 236.034 73.968C228.269 70.64 224.386 64.7947 224.386 56.432C224.386 48.4107 228.354 42.3947 236.29 38.384C239.789 36.592 243.586 35.6533 247.682 35.568C251.949 35.4827 256.386 36.208 260.994 37.744C266.285 39.536 270.039 41.8827 272.258 44.784L260.738 55.152C257.751 52.1653 254.509 50.672 251.01 50.672C245.549 50.672 242.818 52.464 242.818 56.048V56.304C242.818 58.0107 245.037 59.4613 249.474 60.656C249.815 60.7413 252.631 61.296 257.922 62.32C268.674 64.368 274.05 70.9387 274.05 82.032V82.416Z" class="docs-logo-svg" fill="#404040"/>
<style>
    [data-theme="dark"] .docs-logo-svg {
      fill: #d4d4d4;
    }
</style>
</svg>
