<svg width="512" height="512" viewBox="0 0 512 512" fill="none" xmlns="http://www.w3.org/2000/svg">
<rect x="-0.00585938" y="-0.000488281" width="512" height="512" rx="100" fill="#262626"/>
<rect x="20.9297" y="109.01" width="173.138" height="40.5431" rx="20.2715" transform="rotate(0.0432252 20.9297 109.01)" fill="#FACC15"/>
<rect x="100.982" y="183.969" width="173.138" height="40.5431" rx="20.2715" transform="rotate(0.0432252 100.982 183.969)" fill="#FACC15"/>
<rect x="181.491" y="259.354" width="173.138" height="40.5431" rx="20.2715" transform="rotate(0.0432252 181.491 259.354)" fill="#FACC15"/>
<rect x="261.998" y="334.739" width="62.4311" height="40.5431" rx="20.2715" transform="rotate(0.0432252 261.998 334.739)" fill="#FACC15"/>
<path d="M442.513 435.922C445.843 442.651 438.906 449.847 432.059 446.766L355.339 412.235C350.291 409.962 349.021 403.373 352.863 399.387L392.264 358.515C396.106 354.53 402.737 355.557 405.193 360.519L442.513 435.922Z" fill="#FACC15"/>
</svg>
